<?xml version="1.0" encoding="utf-8"?>
<!-- Generator: Adobe Illustrator 19.1.0, SVG Export Plug-In . SVG Version: 6.00 Build 0)  -->
<svg version="1.1" id="레이어_1" xmlns="http://www.w3.org/2000/svg" xmlns:xlink="http://www.w3.org/1999/xlink" x="0px"
	 y="0px" viewBox="0 0 500 376" style="enable-background:new 0 0 500 376;" xml:space="preserve">
<style type="text/css">
	.st0{fill:#231F20;}
	.st1{fill:#FFFFFF;}
	.st2{fill:#CE1F3E;}
</style>
<g>
	<g>
		<path class="st0" d="M38.864,101.058c17.537,0,28.673,8.704,33.666,26.497h18.305V98.498c6.785,1.792,17.409,1.664,24.321,0
			v120.326H90.834v-43.138H74.705c-3.072,25.601-14.721,37.25-35.842,37.25h-1.664c-24.833,0-36.866-16.128-36.866-52.098v-6.656
			c0-35.842,12.033-53.123,36.866-53.123H38.864z M38.864,205.895c10.112,0,12.8-11.648,12.8-45.058v-6.656
			c0-33.282-2.688-46.083-12.8-46.083h-1.664c-10.241,0-12.929,12.801-12.929,46.083v6.656c0,33.41,2.816,45.058,12.929,45.058
			H38.864z M75.345,168.645h15.489v-34.049H74.065c1.024,5.76,1.536,12.289,1.536,19.585v6.656
			C75.601,163.653,75.473,166.213,75.345,168.645z"/>
		<path class="st0" d="M170.704,144.453c-8.064,14.464-22.017,23.169-44.162,28.545l-1.536-2.56
			c24.321-12.545,30.082-28.417,30.082-63.619V99.65c5.632,1.024,18.561,1.024,24.321,0l-0.128,8.064
			c-0.512,10.369-1.792,19.201-4.353,26.881c2.56-1.536,4.992-3.456,7.041-5.632l24.577,30.209
			c-7.041,2.816-12.544,6.528-19.073,12.417L170.704,144.453z M242.131,198.343c0,11.776-13.825,21.121-47.106,21.121h-1.536
			c-33.282,0-47.106-9.344-47.106-21.121v-1.28c0-11.776,13.825-21.121,47.106-21.121h1.536c33.281,0,47.106,9.345,47.106,21.121
			V198.343z M168.144,198.343c0,7.936,9.601,14.464,25.345,14.464h1.536c15.745,0,25.345-6.528,25.345-14.464v-1.28
			c0-7.937-9.601-14.465-25.345-14.465h-1.536c-15.745,0-25.345,6.528-25.345,14.465V198.343z M215.122,126.532V98.498
			c6.785,1.792,17.409,1.664,24.321,0v73.091h-24.321v-38.018h-21.505v-7.04H215.122z"/>
		<path class="st0" d="M311.889,117.827c3.968,2.304,7.296,5.121,9.6,8.96h18.049V98.498c6.785,1.792,17.41,1.664,24.322,0v74.371
			h-24.322v-15.745h-17.152c-5.633,11.521-19.329,16.257-33.025,16.257h-1.024c-18.049,0-35.842-8.192-35.842-28.929v-3.2
			c0-11.393,5.376-18.945,13.185-23.425h-16.513v-7.552h27.905V96.066c6.784,1.792,17.409,1.664,24.321,0v14.208h26.625v7.552
			H311.889z M271.951,180.678h91.909v10.625c0,15.617-2.305,21.505-10.241,27.905h-81.667V180.678z M276.559,144.453
			c0,15.617,3.84,22.657,11.777,22.657h1.024c7.809,0,11.776-6.912,11.776-22.657v-3.2c0-15.617-3.968-22.657-11.776-22.657h-1.024
			c-7.937,0-11.777,7.041-11.777,22.657V144.453z M296.272,212.167h43.266v-24.449h-43.266V212.167z M324.69,150.085h14.848v-16.257
			h-15.232c0.641,2.304,0.896,4.736,0.896,7.424v3.2C325.201,146.5,324.946,148.292,324.69,150.085z"/>
		<path class="st0" d="M383.823,136.516c0-25.601,24.064-33.41,51.074-33.41h1.023c27.01,0,51.074,7.809,51.074,33.41v1.024
			c0,22.017-17.664,30.85-39.682,32.898v29.697h50.051v7.04H373.198v-7.04h49.795v-29.697c-21.89-2.176-39.17-11.137-39.17-32.898
			V136.516z M407.887,137.54c0,18.817,12.673,26.37,27.01,26.37h1.023c14.337,0,27.01-7.425,27.01-26.37v-1.024
			c0-18.817-12.673-26.369-27.01-26.369h-1.023c-14.337,0-27.01,7.552-27.01,26.369V137.54z"/>
	</g>
	<g>
		<path class="st0" d="M3.662,267.33v-9.984c8.32,1.28,21.121,1.92,32.514,1.92h4.096c12.289,0,24.705-0.512,31.745-1.92v9.984
			H3.662z M33.999,294.852v59.395h39.682v7.04H9.678v-66.435H3.662v-7.425h68.483v7.425H33.999z M87.506,372.423V252.098
			c6.785,1.792,17.409,1.664,24.321,0v50.818h14.081v7.04h-14.081v62.467H87.506z"/>
		<path class="st0" d="M131.022,287.555c0-21.761,12.929-33.281,37.378-33.281h1.024c24.449,0,37.378,11.521,37.378,33.281v1.024
			c0,21.761-12.929,33.281-37.378,33.281H168.4c-24.449,0-37.378-11.521-37.378-33.281V287.555z M151.759,331.589h92.548v13.312
			c0,15.617-2.304,21.506-10.24,27.906h-82.308V331.589z M155.087,288.579c0,20.097,4.096,27.01,13.313,27.01h1.024
			c9.216,0,13.312-6.785,13.312-27.01v-1.024c0-20.097-4.096-27.009-13.312-27.009H168.4c-9.217,0-13.313,6.912-13.313,27.009
			V288.579z M176.08,365.767h43.906V338.63H176.08V365.767z M219.986,324.293v-72.195c7.552,1.152,17.024,1.28,24.321,0v72.195
			H219.986z"/>
		<path class="st0" d="M321.617,312.645h-41.73v41.857h47.618v7.041h-71.939v-55.939h41.73v-39.81H256.59v-8.96
			c7.552,1.023,20.865,1.92,28.417,1.92h8.064c8.448,0,22.017-0.896,28.546-1.92V312.645z M340.178,372.423V252.098
			c6.784,1.792,17.408,1.664,24.32,0v50.818h14.081v7.04h-14.081v62.467H340.178z"/>
		<path class="st0" d="M383.822,289.732c0-23.041,12.929-37.122,37.378-37.122h1.023c24.449,0,37.378,14.081,37.378,37.122v1.023
			c0,23.042-12.929,37.122-37.378,37.122h-1.023c-24.449,0-37.378-14.08-37.378-37.122V289.732z M401.231,336.581
			c7.296,1.152,16.896,1.152,24.32,0v27.521h74.115v7.04h-98.436V336.581z M407.887,290.755c0,21.377,3.456,30.85,13.312,30.85
			h1.023c9.857,0,13.312-9.344,13.312-30.85v-1.023c0-21.377-3.455-30.85-13.312-30.85h-1.023c-9.856,0-13.312,9.473-13.312,30.85
			V290.755z M472.785,343.75v-91.652c7.553,1.152,17.025,1.28,24.321,0v91.652H472.785z"/>
	</g>
</g>
<g>
	<g>
		<circle class="st1" cx="247.26" cy="36.152" r="31.194"/>
		<path class="st2" d="M247.26,69.111c-18.174,0-32.96-14.786-32.96-32.959c0-18.174,14.786-32.96,32.96-32.96
			s32.96,14.786,32.96,32.96C280.22,54.326,265.435,69.111,247.26,69.111z M247.26,6.723c-16.227,0-29.429,13.202-29.429,29.429
			c0,16.227,13.202,29.428,29.429,29.428s29.429-13.202,29.429-29.428C276.689,19.925,263.487,6.723,247.26,6.723z"/>
	</g>
	<path class="st0" d="M251.12,47.209c-0.975,0-1.766-0.791-1.766-1.766V19.799c0-0.975,0.791-1.766,1.766-1.766
		s1.766,0.791,1.766,1.766v25.644C252.886,46.419,252.095,47.209,251.12,47.209z"/>
	<path class="st0" d="M237.125,34.092c-0.975,0-1.766-0.791-1.766-1.766V19.799c0-0.975,0.791-1.766,1.766-1.766
		s1.766,0.791,1.766,1.766v12.527C238.891,33.301,238.101,34.092,237.125,34.092z"/>
	<path class="st0" d="M231.043,54.86c-0.975,0-1.766-0.791-1.766-1.766V39.977c0-0.975,0.791-1.766,1.766-1.766
		s1.766,0.791,1.766,1.766v13.118C232.809,54.07,232.018,54.86,231.043,54.86z"/>
	<g>
		<line class="st1" x1="258.635" y1="39.977" x2="264.937" y2="45.415"/>
		<path class="st0" d="M264.937,47.18c-0.408,0-0.819-0.141-1.152-0.429l-6.302-5.438c-0.738-0.637-0.821-1.752-0.184-2.49
			c0.637-0.738,1.752-0.82,2.49-0.184l6.302,5.438c0.738,0.637,0.821,1.752,0.184,2.49C265.925,46.973,265.433,47.18,264.937,47.18z
			"/>
	</g>
	<path class="st0" d="M258.634,29.216c-0.385,0-0.773-0.125-1.098-0.383c-0.764-0.607-0.89-1.718-0.284-2.481l6.083-7.651
		c0.608-0.763,1.718-0.89,2.481-0.284c0.764,0.607,0.89,1.718,0.284,2.481l-6.083,7.651
		C259.669,28.988,259.154,29.216,258.634,29.216z"/>
	<g>
		<line class="st1" x1="237.125" y1="19.8" x2="231.043" y2="27.451"/>
		<path class="st2" d="M231.042,29.216c-0.385,0-0.773-0.125-1.098-0.383c-0.764-0.607-0.89-1.718-0.284-2.481l6.083-7.651
			c0.608-0.763,1.719-0.89,2.481-0.284c0.764,0.607,0.89,1.718,0.284,2.481l-6.083,7.651
			C232.077,28.988,231.562,29.216,231.042,29.216z"/>
	</g>
	<g>
		<line class="st1" x1="237.125" y1="32.326" x2="231.043" y2="39.977"/>
		<path class="st2" d="M231.042,41.743c-0.385,0-0.773-0.125-1.098-0.383c-0.764-0.607-0.89-1.718-0.284-2.481l6.083-7.651
			c0.608-0.764,1.719-0.889,2.481-0.284c0.764,0.607,0.89,1.718,0.284,2.481l-6.083,7.651
			C232.077,41.514,231.562,41.743,231.042,41.743z"/>
	</g>
	<g>
		<line class="st1" x1="237.125" y1="45.444" x2="231.043" y2="53.095"/>
		<path class="st2" d="M231.042,54.86c-0.385,0-0.773-0.125-1.098-0.383c-0.764-0.607-0.89-1.718-0.284-2.481l6.083-7.651
			c0.608-0.763,1.719-0.89,2.481-0.284c0.764,0.607,0.89,1.718,0.284,2.481l-6.083,7.651
			C232.077,54.632,231.562,54.86,231.042,54.86z"/>
	</g>
	<path class="st0" d="M245.038,54.86c-0.975,0-1.766-0.791-1.766-1.766V39.977c0-0.975,0.791-1.766,1.766-1.766
		s1.766,0.791,1.766,1.766v13.118C246.803,54.07,246.013,54.86,245.038,54.86z"/>
	<g>
		<line class="st1" x1="251.12" y1="19.8" x2="245.038" y2="27.451"/>
		<path class="st2" d="M245.037,29.216c-0.385,0-0.773-0.125-1.098-0.383c-0.764-0.607-0.89-1.718-0.284-2.481l6.083-7.651
			c0.607-0.763,1.719-0.89,2.481-0.284c0.764,0.607,0.89,1.718,0.284,2.481l-6.083,7.651
			C246.071,28.988,245.556,29.216,245.037,29.216z"/>
	</g>
	<g>
		<line class="st1" x1="251.12" y1="45.444" x2="245.038" y2="53.095"/>
		<path class="st2" d="M245.037,54.86c-0.385,0-0.773-0.125-1.098-0.383c-0.764-0.607-0.89-1.718-0.284-2.481l6.083-7.651
			c0.607-0.763,1.719-0.89,2.481-0.284c0.764,0.607,0.89,1.718,0.284,2.481l-6.083,7.651
			C246.071,54.632,245.556,54.86,245.037,54.86z"/>
	</g>
	<g>
		<line class="st1" x1="264.718" y1="32.326" x2="258.635" y2="39.977"/>
		<path class="st2" d="M258.634,41.743c-0.385,0-0.773-0.125-1.098-0.383c-0.764-0.607-0.89-1.718-0.284-2.481l6.083-7.651
			c0.608-0.764,1.718-0.889,2.481-0.284c0.764,0.607,0.89,1.718,0.284,2.481l-6.083,7.651
			C259.669,41.514,259.154,41.743,258.634,41.743z"/>
	</g>
	<g>
		<line class="st1" x1="264.966" y1="45.444" x2="258.884" y2="53.095"/>
		<path class="st2" d="M258.883,54.86c-0.385,0-0.773-0.125-1.098-0.383c-0.764-0.607-0.891-1.718-0.284-2.481l6.082-7.651
			c0.608-0.763,1.719-0.89,2.481-0.284c0.764,0.607,0.891,1.718,0.284,2.481l-6.082,7.651
			C259.917,54.632,259.402,54.86,258.883,54.86z"/>
	</g>
</g>
<g>
	<path class="st2" d="M116.147,37.432h-2.759v-0.761h6.468v0.761h-2.759v7.32h-0.951V37.432z"/>
	<path class="st2" d="M123.527,36.671h1.016l1.887,5.383c0.119,0.356,0.251,0.878,0.251,0.878s0.146-0.535,0.291-0.878l2.337-5.467
		h0.158l2.337,5.467c0.145,0.344,0.29,0.878,0.29,0.878s0.132-0.535,0.25-0.878l1.875-5.383h0.964l-2.957,8.164h-0.159l-2.416-5.752
		c-0.146-0.332-0.265-0.795-0.265-0.795s-0.132,0.463-0.277,0.795l-2.455,5.752h-0.159L123.527,36.671z"/>
	<path class="st2" d="M139.512,36.671h5.466v0.761h-4.515v3.791h4.026v0.749h-4.026v2.02h4.699v0.76h-5.65V36.671z"/>
	<path class="st2" d="M151.247,39.13c-0.251-0.273-0.62-0.748-0.62-0.748s0.079,0.571,0.079,0.915v5.455h-0.898v-8.164h0.159
		l5.36,5.704c0.251,0.274,0.621,0.748,0.621,0.748s-0.066-0.57-0.066-0.915v-5.454h0.884v8.164h-0.159L151.247,39.13z"/>
	<path class="st2" d="M163.827,37.432h-2.759v-0.761h6.468v0.761h-2.76v7.32h-0.95V37.432z"/>
	<path class="st2" d="M171.879,36.671h0.964v8.08h-0.964V36.671z"/>
	<path class="st2" d="M177.978,36.671h5.466v0.761h-4.515v3.791h4.026v0.749h-4.026v2.02h4.699v0.76h-5.65V36.671z"/>
	<path class="st2" d="M187.43,43.207l0.792-0.38c0.422,0.677,1.042,1.259,2.31,1.259c1.043,0,1.861-0.522,1.861-1.378
		c0-0.82-0.567-1.237-1.69-1.688l-0.713-0.298c-1.28-0.522-1.979-1.081-1.979-2.21c0-1.164,1.016-1.937,2.363-1.937
		c1.201,0,1.953,0.499,2.428,1.212l-0.765,0.428c-0.343-0.5-0.818-0.88-1.663-0.88c-0.885,0-1.426,0.463-1.426,1.152
		c0,0.713,0.422,1.034,1.426,1.45l0.712,0.298c1.492,0.594,2.258,1.259,2.258,2.472c0,1.331-1.175,2.139-2.785,2.139
		C188.842,44.847,187.905,44.063,187.43,43.207z"/>
</g>
<g>
	<path class="st2" d="M298.887,37.438h-2.759v-0.761h6.468v0.761h-2.76v7.32h-0.95V37.438z"/>
	<path class="st2" d="M306.939,36.677h0.963v8.08h-0.963V36.677z"/>
	<path class="st2" d="M313.037,36.582h0.132l4.172,4.694l4.145-4.694h0.146v8.176h-0.924v-5.336c0-0.369,0.04-0.927,0.04-0.927
		s-0.343,0.524-0.634,0.844l-2.72,3.09h-0.158l-2.68-3.09c-0.29-0.32-0.646-0.844-0.646-0.844s0.053,0.558,0.053,0.927v5.336h-0.924
		V36.582z"/>
	<path class="st2" d="M326.726,36.677h5.465v0.761h-4.515v3.791h4.027v0.749h-4.027v2.02h4.701v0.761h-5.651V36.677z"/>
	<path class="st2" d="M337.022,36.677h0.95v7.32h4.238v0.761h-5.188V36.677z"/>
	<path class="st2" d="M346.659,36.677h0.964v8.08h-0.964V36.677z"/>
	<path class="st2" d="M354.196,39.136c-0.251-0.273-0.621-0.748-0.621-0.748s0.079,0.571,0.079,0.915v5.455h-0.897v-8.164h0.158
		l5.359,5.704c0.251,0.274,0.621,0.748,0.621,0.748s-0.066-0.57-0.066-0.915v-5.454h0.885v8.164h-0.159L354.196,39.136z"/>
	<path class="st2" d="M364.81,36.677h5.465v0.761h-4.515v3.791h4.027v0.749h-4.027v2.02h4.7v0.761h-5.65V36.677z"/>
</g>
</svg>
